ISO-10303-21;
HEADER;
FILE_DESCRIPTION(('STEP AP214'),'1');
FILE_NAME('USC-ZKN_rotated.stp','2018-09-13T04:11:27',(' '),(' '),'Spatial InterOp 3D',' ',' ');
FILE_SCHEMA(('AUTOMOTIVE_DESIGN { 1 0 10303 214 1 1 1 1 }'));
ENDSEC;
DATA;
#1=PRODUCT_DEFINITION_CONTEXT('',#33,'design');
#2=APPLICATION_PROTOCOL_DEFINITION('INTERNATIONAL STANDARD','automotive_design',1994,#33);
#3=PRODUCT_CATEGORY_RELATIONSHIP('NONE','NONE',#34,#35);
#4=SHAPE_DEFINITION_REPRESENTATION(#36,#37);
#5=PRODUCT_DEFINITION_CONTEXT('',#38,'design');
#6=APPLICATION_PROTOCOL_DEFINITION('INTERNATIONAL STANDARD','automotive_design',1994,#38);
#7=PRODUCT_CATEGORY_RELATIONSHIP('NONE','NONE',#39,#40);
#8=CONTEXT_DEPENDENT_SHAPE_REPRESENTATION(#41,#42);
#9=SHAPE_DEFINITION_REPRESENTATION(#43,#44);
#10=SHAPE_REPRESENTATION_RELATIONSHIP('NONE','NONE',#44,#45);
#11=PRODUCT_DEFINITION_CONTEXT('',#46,'design');
#12=APPLICATION_PROTOCOL_DEFINITION('INTERNATIONAL STANDARD','automotive_design',1994,#46);
#13=PRODUCT_CATEGORY_RELATIONSHIP('NONE','NONE',#47,#48);
#14=CONTEXT_DEPENDENT_SHAPE_REPRESENTATION(#49,#50);
#15=SHAPE_DEFINITION_REPRESENTATION(#51,#52);
#16=SHAPE_REPRESENTATION_RELATIONSHIP('NONE','NONE',#52,#53);
#17=PRODUCT_DEFINITION_CONTEXT('',#54,'design');
#18=APPLICATION_PROTOCOL_DEFINITION('INTERNATIONAL STANDARD','automotive_design',1994,#54);
#19=PRODUCT_CATEGORY_RELATIONSHIP('NONE','NONE',#55,#56);
#20=CONTEXT_DEPENDENT_SHAPE_REPRESENTATION(#57,#58);
#21=SHAPE_DEFINITION_REPRESENTATION(#59,#60);
#22=SHAPE_REPRESENTATION_RELATIONSHIP('NONE','NONE',#60,#61);
#23=PRODUCT_DEFINITION_CONTEXT('',#62,'design');
#24=APPLICATION_PROTOCOL_DEFINITION('INTERNATIONAL STANDARD','automotive_design',1994,#62);
#25=PRODUCT_CATEGORY_RELATIONSHIP('NONE','NONE',#63,#64);
#26=SHAPE_DEFINITION_REPRESENTATION(#65,#66);
#27=CONTEXT_DEPENDENT_SHAPE_REPRESENTATION(#67,#68);
#28=MECHANICAL_DESIGN_GEOMETRIC_PRESENTATION_REPRESENTATION(' ',(#69,#70,#71,#72,#73,#74,#75,#76,#77,#78,#79,#80,#81,#82,#83,#84,#85,#86,#87,#88,#89,#90,#91,#92,#93,#94,#95,#96,#97,#98,#99,#100,#101,#102,#103),#29);
#29= (GEOMETRIC_REPRESENTATION_CONTEXT(3)GLOBAL_UNCERTAINTY_ASSIGNED_CONTEXT((#106))GLOBAL_UNIT_ASSIGNED_CONTEXT((#108,#109,#110))REPRESENTATION_CONTEXT('NONE','WORKSPACE'));
#33=APPLICATION_CONTEXT(' ');
#34=PRODUCT_CATEGORY('part','NONE');
#35=PRODUCT_RELATED_PRODUCT_CATEGORY('detail',' ',(#112));
#36=PRODUCT_DEFINITION_SHAPE('NONE','NONE',#113);
#37=SHAPE_REPRESENTATION('Component4',(#114,#115,#116,#117),#118);
#38=APPLICATION_CONTEXT(' ');
#39=PRODUCT_CATEGORY('part','NONE');
#40=PRODUCT_RELATED_PRODUCT_CATEGORY('detail',' ',(#119));
#41=(REPRESENTATION_RELATIONSHIP('','',#44,#37)REPRESENTATION_RELATIONSHIP_WITH_TRANSFORMATION(#122)SHAPE_REPRESENTATION_RELATIONSHIP());
#42=PRODUCT_DEFINITION_SHAPE('NAUO-PROD-DEF','NAUO-PROD-DEF',#124);
#43=PRODUCT_DEFINITION_SHAPE('NONE','NONE',#125);
#44=SHAPE_REPRESENTATION('Component3',(#114),#118);
#45=ADVANCED_BREP_SHAPE_REPRESENTATION('Lead2',(#126),#29);
#46=APPLICATION_CONTEXT(' ');
#47=PRODUCT_CATEGORY('part','NONE');
#48=PRODUCT_RELATED_PRODUCT_CATEGORY('detail',' ',(#127));
#49=(REPRESENTATION_RELATIONSHIP('','',#52,#37)REPRESENTATION_RELATIONSHIP_WITH_TRANSFORMATION(#130)SHAPE_REPRESENTATION_RELATIONSHIP());
#50=PRODUCT_DEFINITION_SHAPE('NAUO-PROD-DEF','NAUO-PROD-DEF',#132);
#51=PRODUCT_DEFINITION_SHAPE('NONE','NONE',#133);
#52=SHAPE_REPRESENTATION('Component2',(#114),#118);
#53=ADVANCED_BREP_SHAPE_REPRESENTATION('Lead1',(#134),#29);
#54=APPLICATION_CONTEXT(' ');
#55=PRODUCT_CATEGORY('part','NONE');
#56=PRODUCT_RELATED_PRODUCT_CATEGORY('detail',' ',(#135));
#57=(REPRESENTATION_RELATIONSHIP('','',#60,#37)REPRESENTATION_RELATIONSHIP_WITH_TRANSFORMATION(#138)SHAPE_REPRESENTATION_RELATIONSHIP());
#58=PRODUCT_DEFINITION_SHAPE('NAUO-PROD-DEF','NAUO-PROD-DEF',#140);
#59=PRODUCT_DEFINITION_SHAPE('NONE','NONE',#141);
#60=SHAPE_REPRESENTATION('Component1',(#114),#118);
#61=ADVANCED_BREP_SHAPE_REPRESENTATION('Mold',(#142),#29);
#62=APPLICATION_CONTEXT(' ');
#63=PRODUCT_CATEGORY('part','NONE');
#64=PRODUCT_RELATED_PRODUCT_CATEGORY('detail',' ',(#143));
#65=PRODUCT_DEFINITION_SHAPE('NONE','NONE',#144);
#66=SHAPE_REPRESENTATION('USC-ZKN_rotated',(#145,#146),#147);
#67=(REPRESENTATION_RELATIONSHIP('','',#37,#66)REPRESENTATION_RELATIONSHIP_WITH_TRANSFORMATION(#150)SHAPE_REPRESENTATION_RELATIONSHIP());
#68=PRODUCT_DEFINITION_SHAPE('NAUO-PROD-DEF','NAUO-PROD-DEF',#152);
#69=STYLED_ITEM('',(#153),#154);
#70=STYLED_ITEM('',(#155),#156);
#71=STYLED_ITEM('',(#157),#158);
#72=STYLED_ITEM('',(#159),#160);
#73=STYLED_ITEM('',(#161),#162);
#74=STYLED_ITEM('',(#163),#164);
#75=STYLED_ITEM('',(#165),#166);
#76=STYLED_ITEM('',(#167),#168);
#77=STYLED_ITEM('',(#169),#170);
#78=STYLED_ITEM('',(#171),#172);
#79=STYLED_ITEM('',(#173),#174);
#80=STYLED_ITEM('',(#175),#126);
#81=STYLED_ITEM('',(#176),#177);
#82=STYLED_ITEM('',(#178),#179);
#83=STYLED_ITEM('',(#180),#181);
#84=STYLED_ITEM('',(#182),#183);
#85=STYLED_ITEM('',(#184),#185);
#86=STYLED_ITEM('',(#186),#187);
#87=STYLED_ITEM('',(#188),#189);
#88=STYLED_ITEM('',(#190),#191);
#89=STYLED_ITEM('',(#192),#193);
#90=STYLED_ITEM('',(#194),#195);
#91=STYLED_ITEM('',(#196),#197);
#92=STYLED_ITEM('',(#198),#134);
#93=STYLED_ITEM('',(#199),#200);
#94=STYLED_ITEM('',(#201),#202);
#95=STYLED_ITEM('',(#203),#204);
#96=STYLED_ITEM('',(#205),#206);
#97=STYLED_ITEM('',(#207),#208);
#98=STYLED_ITEM('',(#209),#210);
#99=STYLED_ITEM('',(#211),#212);
#100=STYLED_ITEM('',(#213),#214);
#101=STYLED_ITEM('',(#215),#216);
#102=STYLED_ITEM('',(#217),#218);
#103=STYLED_ITEM('',(#219),#142);
#106=UNCERTAINTY_MEASURE_WITH_UNIT(LENGTH_MEASURE(1.0E-08),#108,'','');
#108= (CONVERSION_BASED_UNIT('METRE',#222)LENGTH_UNIT()NAMED_UNIT(#225));
#109= (NAMED_UNIT(#227)PLANE_ANGLE_UNIT()SI_UNIT($,.RADIAN.));
#110= (NAMED_UNIT(#227)SOLID_ANGLE_UNIT()SI_UNIT($,.STERADIAN.));
#112=PRODUCT('Component4','Component4','PART--DESC',(#233));
#113=PRODUCT_DEFINITION('Component4','Component4',#234,#1);
#114=AXIS2_PLACEMENT_3D('',#235,#236,#237);
#115=AXIS2_PLACEMENT_3D('',#238,#239,#240);
#116=AXIS2_PLACEMENT_3D('',#241,#242,#243);
#117=AXIS2_PLACEMENT_3D('',#244,#245,#246);
#118= (GEOMETRIC_REPRESENTATION_CONTEXT(3)GLOBAL_UNCERTAINTY_ASSIGNED_CONTEXT((#249))GLOBAL_UNIT_ASSIGNED_CONTEXT((#251,#252,#253))REPRESENTATION_CONTEXT('NONE','WORKSPACE'));
#119=PRODUCT('Component3','Component3','PART-Component3-DESC',(#255));
#122=ITEM_DEFINED_TRANSFORMATION('','',#114,#115);
#124=NEXT_ASSEMBLY_USAGE_OCCURRENCE('Component3','Component3','Component3',#113,#125,$);
#125=PRODUCT_DEFINITION('Component3','Component3',#256,#5);
#126=MANIFOLD_SOLID_BREP('Lead2',#257);
#127=PRODUCT('Component2','Component2','PART--DESC',(#258));
#130=ITEM_DEFINED_TRANSFORMATION('','',#114,#116);
#132=NEXT_ASSEMBLY_USAGE_OCCURRENCE('Component2','Component2','Component2',#113,#133,$);
#133=PRODUCT_DEFINITION('Component2','Component2',#259,#11);
#134=MANIFOLD_SOLID_BREP('Lead1',#260);
#135=PRODUCT('Component1','Component1','PART--DESC',(#261));
#138=ITEM_DEFINED_TRANSFORMATION('','',#114,#117);
#140=NEXT_ASSEMBLY_USAGE_OCCURRENCE('Component1','Component1','Component1',#113,#141,$);
#141=PRODUCT_DEFINITION('Component1','Component1',#262,#17);
#142=MANIFOLD_SOLID_BREP('Mold',#263);
#143=PRODUCT('USC-ZKN_rotated','USC-ZKN_rotated','PART--DESC',(#264));
#144=PRODUCT_DEFINITION('USC-ZKN_rotated','USC-ZKN_rotated',#265,#23);
#145=AXIS2_PLACEMENT_3D('',#266,#267,#268);
#146=AXIS2_PLACEMENT_3D('',#269,#270,#271);
#147= (GEOMETRIC_REPRESENTATION_CONTEXT(3)GLOBAL_UNCERTAINTY_ASSIGNED_CONTEXT((#274))GLOBAL_UNIT_ASSIGNED_CONTEXT((#276,#277,#278))REPRESENTATION_CONTEXT('NONE','WORKSPACE'));
#150=ITEM_DEFINED_TRANSFORMATION('','',#114,#146);
#152=NEXT_ASSEMBLY_USAGE_OCCURRENCE('Component4','Component4','Component4',#144,#113,$);
#153=PRESENTATION_STYLE_ASSIGNMENT((#280));
#154=ADVANCED_FACE('0:268',(#281),#282,.F.);
#155=PRESENTATION_STYLE_ASSIGNMENT((#283));
#156=ADVANCED_FACE('0:271',(#284),#285,.F.);
#157=PRESENTATION_STYLE_ASSIGNMENT((#286));
#158=ADVANCED_FACE('0:274',(#287),#288,.T.);
#159=PRESENTATION_STYLE_ASSIGNMENT((#289));
#160=ADVANCED_FACE('0:277',(#290),#291,.F.);
#161=PRESENTATION_STYLE_ASSIGNMENT((#292));
#162=ADVANCED_FACE('0:280',(#293),#294,.F.);
#163=PRESENTATION_STYLE_ASSIGNMENT((#295));
#164=ADVANCED_FACE('0:283',(#296),#297,.T.);
#165=PRESENTATION_STYLE_ASSIGNMENT((#298));
#166=ADVANCED_FACE('0:286',(#299),#300,.F.);
#167=PRESENTATION_STYLE_ASSIGNMENT((#301));
#168=ADVANCED_FACE('0:289',(#302),#303,.F.);
#169=PRESENTATION_STYLE_ASSIGNMENT((#304));
#170=ADVANCED_FACE('0:292',(#305),#306,.F.);
#171=PRESENTATION_STYLE_ASSIGNMENT((#307));
#172=ADVANCED_FACE('0:295',(#308),#309,.T.);
#173=PRESENTATION_STYLE_ASSIGNMENT((#310));
#174=ADVANCED_FACE('0:298',(#311),#312,.F.);
#175=PRESENTATION_STYLE_ASSIGNMENT((#313));
#176=PRESENTATION_STYLE_ASSIGNMENT((#314));
#177=ADVANCED_FACE('0:139',(#315),#316,.F.);
#178=PRESENTATION_STYLE_ASSIGNMENT((#317));
#179=ADVANCED_FACE('0:142',(#318),#319,.F.);
#180=PRESENTATION_STYLE_ASSIGNMENT((#320));
#181=ADVANCED_FACE('0:145',(#321),#322,.T.);
#182=PRESENTATION_STYLE_ASSIGNMENT((#323));
#183=ADVANCED_FACE('0:148',(#324),#325,.F.);
#184=PRESENTATION_STYLE_ASSIGNMENT((#326));
#185=ADVANCED_FACE('0:151',(#327),#328,.F.);
#186=PRESENTATION_STYLE_ASSIGNMENT((#329));
#187=ADVANCED_FACE('0:154',(#330),#331,.T.);
#188=PRESENTATION_STYLE_ASSIGNMENT((#332));
#189=ADVANCED_FACE('0:157',(#333),#334,.F.);
#190=PRESENTATION_STYLE_ASSIGNMENT((#335));
#191=ADVANCED_FACE('0:160',(#336),#337,.F.);
#192=PRESENTATION_STYLE_ASSIGNMENT((#338));
#193=ADVANCED_FACE('0:163',(#339),#340,.F.);
#194=PRESENTATION_STYLE_ASSIGNMENT((#341));
#195=ADVANCED_FACE('0:166',(#342),#343,.T.);
#196=PRESENTATION_STYLE_ASSIGNMENT((#344));
#197=ADVANCED_FACE('0:169',(#345),#346,.F.);
#198=PRESENTATION_STYLE_ASSIGNMENT((#347));
#199=PRESENTATION_STYLE_ASSIGNMENT((#348));
#200=ADVANCED_FACE('0:31',(#349),#350,.F.);
#201=PRESENTATION_STYLE_ASSIGNMENT((#351));
#202=ADVANCED_FACE('0:34',(#352),#353,.F.);
#203=PRESENTATION_STYLE_ASSIGNMENT((#354));
#204=ADVANCED_FACE('0:37',(#355),#356,.F.);
#205=PRESENTATION_STYLE_ASSIGNMENT((#357));
#206=ADVANCED_FACE('0:40',(#358),#359,.F.);
#207=PRESENTATION_STYLE_ASSIGNMENT((#360));
#208=ADVANCED_FACE('0:43',(#361),#362,.T.);
#209=PRESENTATION_STYLE_ASSIGNMENT((#363));
#210=ADVANCED_FACE('0:46',(#364),#365,.F.);
#211=PRESENTATION_STYLE_ASSIGNMENT((#366));
#212=ADVANCED_FACE('0:49',(#367),#368,.F.);
#213=PRESENTATION_STYLE_ASSIGNMENT((#369));
#214=ADVANCED_FACE('0:52',(#370),#371,.F.);
#215=PRESENTATION_STYLE_ASSIGNMENT((#372));
#216=ADVANCED_FACE('0:55',(#373),#374,.F.);
#217=PRESENTATION_STYLE_ASSIGNMENT((#375));
#218=ADVANCED_FACE('0:58',(#376),#377,.F.);
#219=PRESENTATION_STYLE_ASSIGNMENT((#378));
#222=LENGTH_MEASURE_WITH_UNIT(LENGTH_MEASURE(1.0),#379);
#225=DIMENSIONAL_EXPONENTS(1.0,0.0,0.0,0.0,0.0,0.0,0.0);
#227=DIMENSIONAL_EXPONENTS(0.0,0.0,0.0,0.0,0.0,0.0,0.0);
#233=PRODUCT_CONTEXT('',#33,'mechanical');
#234=PRODUCT_DEFINITION_FORMATION_WITH_SPECIFIED_SOURCE(' ','NONE',#112,.NOT_KNOWN.);
#235=CARTESIAN_POINT('',(0.0,0.0,0.0));
#236=DIRECTION('',(0.0,0.0,1.0));
#237=DIRECTION('',(1.0,0.0,0.0));
#238=CARTESIAN_POINT('',(0.0,0.0,0.0));
#239=DIRECTION('',(0.0,0.0,1.0));
#240=DIRECTION('',(1.0,0.0,0.0));
#241=CARTESIAN_POINT('',(0.0,0.0,0.0));
#242=DIRECTION('',(0.0,0.0,1.0));
#243=DIRECTION('',(1.0,0.0,0.0));
#244=CARTESIAN_POINT('',(0.0,0.0,0.0));
#245=DIRECTION('',(0.0,0.0,1.0));
#246=DIRECTION('',(1.0,0.0,0.0));
#249=UNCERTAINTY_MEASURE_WITH_UNIT(LENGTH_MEASURE(1.0E-08),#251,'','');
#251= (CONVERSION_BASED_UNIT('METRE',#382)LENGTH_UNIT()NAMED_UNIT(#385));
#252= (NAMED_UNIT(#387)PLANE_ANGLE_UNIT()SI_UNIT($,.RADIAN.));
#253= (NAMED_UNIT(#387)SOLID_ANGLE_UNIT()SI_UNIT($,.STERADIAN.));
#255=PRODUCT_CONTEXT('',#38,'mechanical');
#256=PRODUCT_DEFINITION_FORMATION_WITH_SPECIFIED_SOURCE(' ','NONE',#119,.NOT_KNOWN.);
#257=CLOSED_SHELL('',(#154,#156,#158,#160,#162,#164,#166,#168,#170,#172,#174));
#258=PRODUCT_CONTEXT('',#46,'mechanical');
#259=PRODUCT_DEFINITION_FORMATION_WITH_SPECIFIED_SOURCE(' ','NONE',#127,.NOT_KNOWN.);
#260=CLOSED_SHELL('',(#177,#179,#181,#183,#185,#187,#189,#191,#193,#195,#197));
#261=PRODUCT_CONTEXT('',#54,'mechanical');
#262=PRODUCT_DEFINITION_FORMATION_WITH_SPECIFIED_SOURCE(' ','NONE',#135,.NOT_KNOWN.);
#263=CLOSED_SHELL('',(#200,#202,#204,#206,#208,#210,#212,#214,#216,#218));
#264=PRODUCT_CONTEXT('',#62,'mechanical');
#265=PRODUCT_DEFINITION_FORMATION_WITH_SPECIFIED_SOURCE(' ','NONE',#143,.NOT_KNOWN.);
#266=CARTESIAN_POINT('',(0.0,0.0,0.0));
#267=DIRECTION('',(0.0,0.0,1.0));
#268=DIRECTION('',(1.0,0.0,0.0));
#269=CARTESIAN_POINT('',(0.0,0.0,0.0));
#270=DIRECTION('',(0.0,0.0,1.0));
#271=DIRECTION('',(-3.94129173741931E-15,1.0,0.0));
#274=UNCERTAINTY_MEASURE_WITH_UNIT(LENGTH_MEASURE(1.0E-08),#276,'','');
#276= (CONVERSION_BASED_UNIT('METRE',#395)LENGTH_UNIT()NAMED_UNIT(#398));
#277= (NAMED_UNIT(#400)PLANE_ANGLE_UNIT()SI_UNIT($,.RADIAN.));
#278= (NAMED_UNIT(#400)SOLID_ANGLE_UNIT()SI_UNIT($,.STERADIAN.));
#280=SURFACE_STYLE_USAGE(.BOTH.,#406);
#281=FACE_OUTER_BOUND('',#407,.T.);
#282=CYLINDRICAL_SURFACE('',#408,0.0001);
#283=SURFACE_STYLE_USAGE(.BOTH.,#409);
#284=FACE_OUTER_BOUND('',#410,.T.);
#285=PLANE('',#411);
#286=SURFACE_STYLE_USAGE(.BOTH.,#412);
#287=FACE_OUTER_BOUND('',#413,.T.);
#288=CYLINDRICAL_SURFACE('',#414,0.00015);
#289=SURFACE_STYLE_USAGE(.BOTH.,#415);
#290=FACE_OUTER_BOUND('',#416,.T.);
#291=PLANE('',#417);
#292=SURFACE_STYLE_USAGE(.BOTH.,#418);
#293=FACE_OUTER_BOUND('',#419,.T.);
#294=PLANE('',#420);
#295=SURFACE_STYLE_USAGE(.BOTH.,#421);
#296=FACE_OUTER_BOUND('',#422,.T.);
#297=CYLINDRICAL_SURFACE('',#423,0.00025);
#298=SURFACE_STYLE_USAGE(.BOTH.,#424);
#299=FACE_OUTER_BOUND('',#425,.T.);
#300=PLANE('',#426);
#301=SURFACE_STYLE_USAGE(.BOTH.,#427);
#302=FACE_OUTER_BOUND('',#428,.T.);
#303=PLANE('',#429);
#304=SURFACE_STYLE_USAGE(.BOTH.,#430);
#305=FACE_OUTER_BOUND('',#431,.T.);
#306=PLANE('',#432);
#307=SURFACE_STYLE_USAGE(.BOTH.,#433);
#308=FACE_OUTER_BOUND('',#434,.T.);
#309=PLANE('',#435);
#310=SURFACE_STYLE_USAGE(.BOTH.,#436);
#311=FACE_OUTER_BOUND('',#437,.T.);
#312=PLANE('',#438);
#313=SURFACE_STYLE_USAGE(.BOTH.,#439);
#314=SURFACE_STYLE_USAGE(.BOTH.,#440);
#315=FACE_OUTER_BOUND('',#441,.T.);
#316=CYLINDRICAL_SURFACE('',#442,0.0001);
#317=SURFACE_STYLE_USAGE(.BOTH.,#443);
#318=FACE_OUTER_BOUND('',#444,.T.);
#319=PLANE('',#445);
#320=SURFACE_STYLE_USAGE(.BOTH.,#446);
#321=FACE_OUTER_BOUND('',#447,.T.);
#322=CYLINDRICAL_SURFACE('',#448,0.00015);
#323=SURFACE_STYLE_USAGE(.BOTH.,#449);
#324=FACE_OUTER_BOUND('',#450,.T.);
#325=PLANE('',#451);
#326=SURFACE_STYLE_USAGE(.BOTH.,#452);
#327=FACE_OUTER_BOUND('',#453,.T.);
#328=PLANE('',#454);
#329=SURFACE_STYLE_USAGE(.BOTH.,#455);
#330=FACE_OUTER_BOUND('',#456,.T.);
#331=CYLINDRICAL_SURFACE('',#457,0.00025);
#332=SURFACE_STYLE_USAGE(.BOTH.,#458);
#333=FACE_OUTER_BOUND('',#459,.T.);
#334=PLANE('',#460);
#335=SURFACE_STYLE_USAGE(.BOTH.,#461);
#336=FACE_OUTER_BOUND('',#462,.T.);
#337=PLANE('',#463);
#338=SURFACE_STYLE_USAGE(.BOTH.,#464);
#339=FACE_OUTER_BOUND('',#465,.T.);
#340=PLANE('',#466);
#341=SURFACE_STYLE_USAGE(.BOTH.,#467);
#342=FACE_OUTER_BOUND('',#468,.T.);
#343=PLANE('',#469);
#344=SURFACE_STYLE_USAGE(.BOTH.,#470);
#345=FACE_OUTER_BOUND('',#471,.T.);
#346=PLANE('',#472);
#347=SURFACE_STYLE_USAGE(.BOTH.,#473);
#348=SURFACE_STYLE_USAGE(.BOTH.,#474);
#349=FACE_OUTER_BOUND('',#475,.T.);
#350=PLANE('',#476);
#351=SURFACE_STYLE_USAGE(.BOTH.,#477);
#352=FACE_OUTER_BOUND('',#478,.T.);
#353=PLANE('',#479);
#354=SURFACE_STYLE_USAGE(.BOTH.,#480);
#355=FACE_OUTER_BOUND('',#481,.T.);
#356=PLANE('',#482);
#357=SURFACE_STYLE_USAGE(.BOTH.,#483);
#358=FACE_OUTER_BOUND('',#484,.T.);
#359=PLANE('',#485);
#360=SURFACE_STYLE_USAGE(.BOTH.,#486);
#361=FACE_OUTER_BOUND('',#487,.T.);
#362=PLANE('',#488);
#363=SURFACE_STYLE_USAGE(.BOTH.,#489);
#364=FACE_OUTER_BOUND('',#490,.T.);
#365=PLANE('',#491);
#366=SURFACE_STYLE_USAGE(.BOTH.,#492);
#367=FACE_OUTER_BOUND('',#493,.T.);
#368=PLANE('',#494);
#369=SURFACE_STYLE_USAGE(.BOTH.,#495);
#370=FACE_OUTER_BOUND('',#496,.T.);
#371=PLANE('',#497);
#372=SURFACE_STYLE_USAGE(.BOTH.,#498);
#373=FACE_OUTER_BOUND('',#499,.T.);
#374=PLANE('',#500);
#375=SURFACE_STYLE_USAGE(.BOTH.,#501);
#376=FACE_OUTER_BOUND('',#502,.T.);
#377=PLANE('',#503);
#378=SURFACE_STYLE_USAGE(.BOTH.,#504);
#379= (NAMED_UNIT(#225)LENGTH_UNIT()SI_UNIT($,.METRE.));
#382=LENGTH_MEASURE_WITH_UNIT(LENGTH_MEASURE(1.0),#506);
#385=DIMENSIONAL_EXPONENTS(1.0,0.0,0.0,0.0,0.0,0.0,0.0);
#387=DIMENSIONAL_EXPONENTS(0.0,0.0,0.0,0.0,0.0,0.0,0.0);
#395=LENGTH_MEASURE_WITH_UNIT(LENGTH_MEASURE(1.0),#507);
#398=DIMENSIONAL_EXPONENTS(1.0,0.0,0.0,0.0,0.0,0.0,0.0);
#400=DIMENSIONAL_EXPONENTS(0.0,0.0,0.0,0.0,0.0,0.0,0.0);
#406=SURFACE_SIDE_STYLE('',(#508));
#407=EDGE_LOOP('',(#509,#510,#511,#512));
#408=AXIS2_PLACEMENT_3D('',#513,#514,#515);
#409=SURFACE_SIDE_STYLE('',(#516));
#410=EDGE_LOOP('',(#517,#518,#519,#520));
#411=AXIS2_PLACEMENT_3D('',#521,#522,#523);
#412=SURFACE_SIDE_STYLE('',(#524));
#413=EDGE_LOOP('',(#525,#526,#527,#528));
#414=AXIS2_PLACEMENT_3D('',#529,#530,#531);
#415=SURFACE_SIDE_STYLE('',(#532));
#416=EDGE_LOOP('',(#533,#534,#535,#536));
#417=AXIS2_PLACEMENT_3D('',#537,#538,#539);
#418=SURFACE_SIDE_STYLE('',(#540));
#419=EDGE_LOOP('',(#541,#542,#543,#544));
#420=AXIS2_PLACEMENT_3D('',#545,#546,#547);
#421=SURFACE_SIDE_STYLE('',(#548));
#422=EDGE_LOOP('',(#549,#550,#551,#552));
#423=AXIS2_PLACEMENT_3D('',#553,#554,#555);
#424=SURFACE_SIDE_STYLE('',(#556));
#425=EDGE_LOOP('',(#557,#558,#559,#560));
#426=AXIS2_PLACEMENT_3D('',#561,#562,#563);
#427=SURFACE_SIDE_STYLE('',(#564));
#428=EDGE_LOOP('',(#565,#566,#567,#568));
#429=AXIS2_PLACEMENT_3D('',#569,#570,#571);
#430=SURFACE_SIDE_STYLE('',(#572));
#431=EDGE_LOOP('',(#573,#574,#575,#576));
#432=AXIS2_PLACEMENT_3D('',#577,#578,#579);
#433=SURFACE_SIDE_STYLE('',(#580));
#434=EDGE_LOOP('',(#581,#582,#583,#584,#585,#586,#587,#588,#589));
#435=AXIS2_PLACEMENT_3D('',#590,#591,#592);
#436=SURFACE_SIDE_STYLE('',(#593));
#437=EDGE_LOOP('',(#594,#595,#596,#597,#598,#599,#600,#601,#602));
#438=AXIS2_PLACEMENT_3D('',#603,#604,#605);
#439=SURFACE_SIDE_STYLE('',(#606));
#440=SURFACE_SIDE_STYLE('',(#607));
#441=EDGE_LOOP('',(#608,#609,#610,#611));
#442=AXIS2_PLACEMENT_3D('',#612,#613,#614);
#443=SURFACE_SIDE_STYLE('',(#615));
#444=EDGE_LOOP('',(#616,#617,#618,#619));
#445=AXIS2_PLACEMENT_3D('',#620,#621,#622);
#446=SURFACE_SIDE_STYLE('',(#623));
#447=EDGE_LOOP('',(#624,#625,#626,#627));
#448=AXIS2_PLACEMENT_3D('',#628,#629,#630);
#449=SURFACE_SIDE_STYLE('',(#631));
#450=EDGE_LOOP('',(#632,#633,#634,#635));
#451=AXIS2_PLACEMENT_3D('',#636,#637,#638);
#452=SURFACE_SIDE_STYLE('',(#639));
#453=EDGE_LOOP('',(#640,#641,#642,#643));
#454=AXIS2_PLACEMENT_3D('',#644,#645,#646);
#455=SURFACE_SIDE_STYLE('',(#647));
#456=EDGE_LOOP('',(#648,#649,#650,#651));
#457=AXIS2_PLACEMENT_3D('',#652,#653,#654);
#458=SURFACE_SIDE_STYLE('',(#655));
#459=EDGE_LOOP('',(#656,#657,#658,#659));
#460=AXIS2_PLACEMENT_3D('',#660,#661,#662);
#461=SURFACE_SIDE_STYLE('',(#663));
#462=EDGE_LOOP('',(#664,#665,#666,#667));
#463=AXIS2_PLACEMENT_3D('',#668,#669,#670);
#464=SURFACE_SIDE_STYLE('',(#671));
#465=EDGE_LOOP('',(#672,#673,#674,#675));
#466=AXIS2_PLACEMENT_3D('',#676,#677,#678);
#467=SURFACE_SIDE_STYLE('',(#679));
#468=EDGE_LOOP('',(#680,#681,#682,#683,#684,#685,#686,#687,#688));
#469=AXIS2_PLACEMENT_3D('',#689,#690,#691);
#470=SURFACE_SIDE_STYLE('',(#692));
#471=EDGE_LOOP('',(#693,#694,#695,#696,#697,#698,#699,#700,#701));
#472=AXIS2_PLACEMENT_3D('',#702,#703,#704);
#473=SURFACE_SIDE_STYLE('',(#705));
#474=SURFACE_SIDE_STYLE('',(#706));
#475=EDGE_LOOP('',(#707,#708,#709,#710));
#476=AXIS2_PLACEMENT_3D('',#711,#712,#713);
#477=SURFACE_SIDE_STYLE('',(#714));
#478=EDGE_LOOP('',(#715,#716,#717,#718));
#479=AXIS2_PLACEMENT_3D('',#719,#720,#721);
#480=SURFACE_SIDE_STYLE('',(#722));
#481=EDGE_LOOP('',(#723,#724,#725,#726));
#482=AXIS2_PLACEMENT_3D('',#727,#728,#729);
#483=SURFACE_SIDE_STYLE('',(#730));
#484=EDGE_LOOP('',(#731,#732,#733,#734));
#485=AXIS2_PLACEMENT_3D('',#735,#736,#737);
#486=SURFACE_SIDE_STYLE('',(#738));
#487=EDGE_LOOP('',(#739,#740,#741,#742));
#488=AXIS2_PLACEMENT_3D('',#743,#744,#745);
#489=SURFACE_SIDE_STYLE('',(#746));
#490=EDGE_LOOP('',(#747,#748,#749,#750));
#491=AXIS2_PLACEMENT_3D('',#751,#752,#753);
#492=SURFACE_SIDE_STYLE('',(#754));
#493=EDGE_LOOP('',(#755,#756,#757,#758));
#494=AXIS2_PLACEMENT_3D('',#759,#760,#761);
#495=SURFACE_SIDE_STYLE('',(#762));
#496=EDGE_LOOP('',(#763,#764,#765,#766));
#497=AXIS2_PLACEMENT_3D('',#767,#768,#769);
#498=SURFACE_SIDE_STYLE('',(#770));
#499=EDGE_LOOP('',(#771,#772,#773,#774));
#500=AXIS2_PLACEMENT_3D('',#775,#776,#777);
#501=SURFACE_SIDE_STYLE('',(#778));
#502=EDGE_LOOP('',(#779,#780,#781,#782));
#503=AXIS2_PLACEMENT_3D('',#783,#784,#785);
#504=SURFACE_SIDE_STYLE('',(#786));
#506= (NAMED_UNIT(#385)LENGTH_UNIT()SI_UNIT($,.METRE.));
#507= (NAMED_UNIT(#398)LENGTH_UNIT()SI_UNIT($,.METRE.));
#508=SURFACE_STYLE_FILL_AREA(#789);
#509=ORIENTED_EDGE('',*,*,#790,.T.);
#510=ORIENTED_EDGE('',*,*,#791,.F.);
#511=ORIENTED_EDGE('',*,*,#792,.F.);
#512=ORIENTED_EDGE('',*,*,#793,.T.);
#513=CARTESIAN_POINT('',(0.00015,0.00113157599161991,0.00025));
#514=DIRECTION('',(1.0,0.0,-0.0));
#515=DIRECTION('',(0.0,0.0,1.0));
#516=SURFACE_STYLE_FILL_AREA(#794);
#517=ORIENTED_EDGE('',*,*,#795,.T.);
#518=ORIENTED_EDGE('',*,*,#796,.F.);
#519=ORIENTED_EDGE('',*,*,#797,.F.);
#520=ORIENTED_EDGE('',*,*,#791,.T.);
#521=CARTESIAN_POINT('',(0.00015,0.00103195652181073,0.000241284425725234));
#522=DIRECTION('',(0.0,-0.996194698091746,-0.0871557427476552));
#523=DIRECTION('',(0.0,0.0871557427476552,-0.996194698091746));
#524=SURFACE_STYLE_FILL_AREA(#798);
#525=ORIENTED_EDGE('',*,*,#799,.T.);
#526=ORIENTED_EDGE('',*,*,#800,.F.);
#527=ORIENTED_EDGE('',*,*,#801,.F.);
#528=ORIENTED_EDGE('',*,*,#796,.T.);
#529=CARTESIAN_POINT('',(0.00015,0.000849999999999999,0.0006));
#530=DIRECTION('',(1.0,0.0,-0.0));
#531=DIRECTION('',(0.0,0.0,1.0));
#532=SURFACE_STYLE_FILL_AREA(#802);
#533=ORIENTED_EDGE('',*,*,#803,.T.);
#534=ORIENTED_EDGE('',*,*,#804,.F.);
#535=ORIENTED_EDGE('',*,*,#805,.F.);
#536=ORIENTED_EDGE('',*,*,#800,.T.);
#537=CARTESIAN_POINT('',(0.00015,0.000849999999999999,0.00075));
#538=DIRECTION('',(0.0,1.0,-7.2280144832367E-16));
#539=DIRECTION('',(1.0,0.0,0.0));
#540=SURFACE_STYLE_FILL_AREA(#806);
#541=ORIENTED_EDGE('',*,*,#807,.T.);
#542=ORIENTED_EDGE('',*,*,#808,.F.);
#543=ORIENTED_EDGE('',*,*,#809,.F.);
#544=ORIENTED_EDGE('',*,*,#804,.T.);
#545=CARTESIAN_POINT('',(0.00015,0.000849999999999999,0.0006));
#546=DIRECTION('',(-0.0,0.996194698091746,0.0871557427476552));
#547=DIRECTION('',(1.0,0.0,0.0));
#548=SURFACE_STYLE_FILL_AREA(#810);
#549=ORIENTED_EDGE('',*,*,#811,.T.);
#550=ORIENTED_EDGE('',*,*,#812,.F.);
#551=ORIENTED_EDGE('',*,*,#813,.F.);
#552=ORIENTED_EDGE('',*,*,#808,.T.);
#553=CARTESIAN_POINT('',(0.00015,0.00113157599161991,0.00025));
#554=DIRECTION('',(1.0,0.0,-0.0));
#555=DIRECTION('',(0.0,0.0,1.0));
#556=SURFACE_STYLE_FILL_AREA(#814);
#557=ORIENTED_EDGE('',*,*,#815,.T.);
#558=ORIENTED_EDGE('',*,*,#816,.F.);
#559=ORIENTED_EDGE('',*,*,#817,.F.);
#560=ORIENTED_EDGE('',*,*,#812,.T.);
#561=CARTESIAN_POINT('',(0.00015,0.00113157599161991,0.0));
#562=DIRECTION('',(0.0,0.0,1.0));
#563=DIRECTION('',(1.0,-0.0,0.0));
#564=SURFACE_STYLE_FILL_AREA(#818);
#565=ORIENTED_EDGE('',*,*,#819,.T.);
#566=ORIENTED_EDGE('',*,*,#820,.F.);
#567=ORIENTED_EDGE('',*,*,#821,.F.);
#568=ORIENTED_EDGE('',*,*,#816,.T.);
#569=CARTESIAN_POINT('',(0.00015,0.00125,0.0));
#570=DIRECTION('',(0.0,-1.0,0.0));
#571=DIRECTION('',(0.0,0.0,-1.0));
#572=SURFACE_STYLE_FILL_AREA(#822);
#573=ORIENTED_EDGE('',*,*,#823,.T.);
#574=ORIENTED_EDGE('',*,*,#793,.F.);
#575=ORIENTED_EDGE('',*,*,#824,.F.);
#576=ORIENTED_EDGE('',*,*,#820,.T.);
#577=CARTESIAN_POINT('',(0.00015,0.00125,0.00015));
#578=DIRECTION('',(0.0,2.28881412501608E-16,-1.0));
#579=DIRECTION('',(-1.0,0.0,0.0));
#580=SURFACE_STYLE_FILL_AREA(#825);
#581=ORIENTED_EDGE('',*,*,#792,.T.);
#582=ORIENTED_EDGE('',*,*,#797,.T.);
#583=ORIENTED_EDGE('',*,*,#801,.T.);
#584=ORIENTED_EDGE('',*,*,#805,.T.);
#585=ORIENTED_EDGE('',*,*,#809,.T.);
#586=ORIENTED_EDGE('',*,*,#813,.T.);
#587=ORIENTED_EDGE('',*,*,#817,.T.);
#588=ORIENTED_EDGE('',*,*,#821,.T.);
#589=ORIENTED_EDGE('',*,*,#824,.T.);
#590=CARTESIAN_POINT('',(0.00015,0.00113157599161991,0.00025));
#591=DIRECTION('',(1.0,0.0,0.0));
#592=DIRECTION('',(0.0,1.0,-0.0));
#593=SURFACE_STYLE_FILL_AREA(#826);
#594=ORIENTED_EDGE('',*,*,#790,.F.);
#595=ORIENTED_EDGE('',*,*,#823,.F.);
#596=ORIENTED_EDGE('',*,*,#819,.F.);
#597=ORIENTED_EDGE('',*,*,#815,.F.);
#598=ORIENTED_EDGE('',*,*,#811,.F.);
#599=ORIENTED_EDGE('',*,*,#807,.F.);
#600=ORIENTED_EDGE('',*,*,#803,.F.);
#601=ORIENTED_EDGE('',*,*,#799,.F.);
#602=ORIENTED_EDGE('',*,*,#795,.F.);
#603=CARTESIAN_POINT('',(-0.00015,0.00113157599161991,0.00025));
#604=DIRECTION('',(1.0,0.0,0.0));
#605=DIRECTION('',(0.0,1.0,-0.0));
#606=SURFACE_STYLE_FILL_AREA(#827);
#607=SURFACE_STYLE_FILL_AREA(#828);
#608=ORIENTED_EDGE('',*,*,#829,.F.);
#609=ORIENTED_EDGE('',*,*,#830,.F.);
#610=ORIENTED_EDGE('',*,*,#831,.T.);
#611=ORIENTED_EDGE('',*,*,#832,.T.);
#612=CARTESIAN_POINT('',(0.00015,-0.00113157599161991,0.00025));
#613=DIRECTION('',(1.0,-0.0,0.0));
#614=DIRECTION('',(0.0,0.0,1.0));
#615=SURFACE_STYLE_FILL_AREA(#833);
#616=ORIENTED_EDGE('',*,*,#834,.F.);
#617=ORIENTED_EDGE('',*,*,#832,.F.);
#618=ORIENTED_EDGE('',*,*,#835,.T.);
#619=ORIENTED_EDGE('',*,*,#836,.T.);
#620=CARTESIAN_POINT('',(0.00015,-0.00103195652181073,0.000241284425725234));
#621=DIRECTION('',(0.0,0.996194698091746,-0.0871557427476552));
#622=DIRECTION('',(-1.0,0.0,0.0));
#623=SURFACE_STYLE_FILL_AREA(#837);
#624=ORIENTED_EDGE('',*,*,#838,.F.);
#625=ORIENTED_EDGE('',*,*,#836,.F.);
#626=ORIENTED_EDGE('',*,*,#839,.T.);
#627=ORIENTED_EDGE('',*,*,#840,.T.);
#628=CARTESIAN_POINT('',(0.00015,-0.000849999999999999,0.0006));
#629=DIRECTION('',(1.0,-0.0,0.0));
#630=DIRECTION('',(0.0,0.0,1.0));
#631=SURFACE_STYLE_FILL_AREA(#841);
#632=ORIENTED_EDGE('',*,*,#842,.F.);
#633=ORIENTED_EDGE('',*,*,#840,.F.);
#634=ORIENTED_EDGE('',*,*,#843,.T.);
#635=ORIENTED_EDGE('',*,*,#844,.T.);
#636=CARTESIAN_POINT('',(0.00015,-0.000849999999999999,0.00075));
#637=DIRECTION('',(0.0,-1.0,-7.2280144832367E-16));
#638=DIRECTION('',(0.0,7.2280144832367E-16,-1.0));
#639=SURFACE_STYLE_FILL_AREA(#845);
#640=ORIENTED_EDGE('',*,*,#846,.F.);
#641=ORIENTED_EDGE('',*,*,#844,.F.);
#642=ORIENTED_EDGE('',*,*,#847,.T.);
#643=ORIENTED_EDGE('',*,*,#848,.T.);
#644=CARTESIAN_POINT('',(0.00015,-0.000849999999999999,0.0006));
#645=DIRECTION('',(0.0,-0.996194698091746,0.0871557427476552));
#646=DIRECTION('',(-1.0,0.0,0.0));
#647=SURFACE_STYLE_FILL_AREA(#849);
#648=ORIENTED_EDGE('',*,*,#850,.F.);
#649=ORIENTED_EDGE('',*,*,#848,.F.);
#650=ORIENTED_EDGE('',*,*,#851,.T.);
#651=ORIENTED_EDGE('',*,*,#852,.T.);
#652=CARTESIAN_POINT('',(0.00015,-0.00113157599161991,0.00025));
#653=DIRECTION('',(1.0,-0.0,0.0));
#654=DIRECTION('',(0.0,0.0,1.0));
#655=SURFACE_STYLE_FILL_AREA(#853);
#656=ORIENTED_EDGE('',*,*,#854,.F.);
#657=ORIENTED_EDGE('',*,*,#852,.F.);
#658=ORIENTED_EDGE('',*,*,#855,.T.);
#659=ORIENTED_EDGE('',*,*,#856,.T.);
#660=CARTESIAN_POINT('',(0.00015,-0.00113157599161991,0.0));
#661=DIRECTION('',(0.0,0.0,1.0));
#662=DIRECTION('',(1.0,-0.0,0.0));
#663=SURFACE_STYLE_FILL_AREA(#857);
#664=ORIENTED_EDGE('',*,*,#858,.F.);
#665=ORIENTED_EDGE('',*,*,#856,.F.);
#666=ORIENTED_EDGE('',*,*,#859,.T.);
#667=ORIENTED_EDGE('',*,*,#860,.T.);
#668=CARTESIAN_POINT('',(0.00015,-0.00125,0.0));
#669=DIRECTION('',(0.0,1.0,0.0));
#670=DIRECTION('',(1.0,0.0,-0.0));
#671=SURFACE_STYLE_FILL_AREA(#861);
#672=ORIENTED_EDGE('',*,*,#862,.F.);
#673=ORIENTED_EDGE('',*,*,#860,.F.);
#674=ORIENTED_EDGE('',*,*,#863,.T.);
#675=ORIENTED_EDGE('',*,*,#830,.T.);
#676=CARTESIAN_POINT('',(0.00015,-0.00125,0.00015));
#677=DIRECTION('',(0.0,-2.28881412501608E-16,-1.0));
#678=DIRECTION('',(0.0,-1.0,2.28881412501608E-16));
#679=SURFACE_STYLE_FILL_AREA(#864);
#680=ORIENTED_EDGE('',*,*,#831,.F.);
#681=ORIENTED_EDGE('',*,*,#863,.F.);
#682=ORIENTED_EDGE('',*,*,#859,.F.);
#683=ORIENTED_EDGE('',*,*,#855,.F.);
#684=ORIENTED_EDGE('',*,*,#851,.F.);
#685=ORIENTED_EDGE('',*,*,#847,.F.);
#686=ORIENTED_EDGE('',*,*,#843,.F.);
#687=ORIENTED_EDGE('',*,*,#839,.F.);
#688=ORIENTED_EDGE('',*,*,#835,.F.);
#689=CARTESIAN_POINT('',(0.00015,-0.00113157599161991,0.00025));
#690=DIRECTION('',(1.0,0.0,0.0));
#691=DIRECTION('',(0.0,1.0,-0.0));
#692=SURFACE_STYLE_FILL_AREA(#865);
#693=ORIENTED_EDGE('',*,*,#829,.T.);
#694=ORIENTED_EDGE('',*,*,#834,.T.);
#695=ORIENTED_EDGE('',*,*,#838,.T.);
#696=ORIENTED_EDGE('',*,*,#842,.T.);
#697=ORIENTED_EDGE('',*,*,#846,.T.);
#698=ORIENTED_EDGE('',*,*,#850,.T.);
#699=ORIENTED_EDGE('',*,*,#854,.T.);
#700=ORIENTED_EDGE('',*,*,#858,.T.);
#701=ORIENTED_EDGE('',*,*,#862,.T.);
#702=CARTESIAN_POINT('',(-0.00015,-0.00113157599161991,0.00025));
#703=DIRECTION('',(1.0,0.0,0.0));
#704=DIRECTION('',(0.0,1.0,-0.0));
#705=SURFACE_STYLE_FILL_AREA(#866);
#706=SURFACE_STYLE_FILL_AREA(#867);
#707=ORIENTED_EDGE('',*,*,#868,.T.);
#708=ORIENTED_EDGE('',*,*,#869,.T.);
#709=ORIENTED_EDGE('',*,*,#870,.F.);
#710=ORIENTED_EDGE('',*,*,#871,.F.);
#711=CARTESIAN_POINT('',(-0.000625,0.00085,0.0009));
#712=DIRECTION('',(1.0,2.07526729722119E-48,1.62698180044607E-32));
#713=DIRECTION('',(0.0,1.0,-1.27553196763001E-16));
#714=SURFACE_STYLE_FILL_AREA(#872);
#715=ORIENTED_EDGE('',*,*,#870,.T.);
#716=ORIENTED_EDGE('',*,*,#873,.T.);
#717=ORIENTED_EDGE('',*,*,#874,.F.);
#718=ORIENTED_EDGE('',*,*,#875,.F.);
#719=CARTESIAN_POINT('',(-0.000625,-0.00085,0.0009));
#720=DIRECTION('',(0.0,1.0,0.0));
#721=DIRECTION('',(1.0,0.0,-0.0));
#722=SURFACE_STYLE_FILL_AREA(#876);
#723=ORIENTED_EDGE('',*,*,#874,.T.);
#724=ORIENTED_EDGE('',*,*,#877,.T.);
#725=ORIENTED_EDGE('',*,*,#878,.F.);
#726=ORIENTED_EDGE('',*,*,#879,.F.);
#727=CARTESIAN_POINT('',(0.000625,0.00085,0.0009));
#728=DIRECTION('',(-1.0,-1.27553196763001E-16,0.0));
#729=DIRECTION('',(-1.27553196763001E-16,1.0,0.0));
#730=SURFACE_STYLE_FILL_AREA(#880);
#731=ORIENTED_EDGE('',*,*,#878,.T.);
#732=ORIENTED_EDGE('',*,*,#881,.T.);
#733=ORIENTED_EDGE('',*,*,#868,.F.);
#734=ORIENTED_EDGE('',*,*,#882,.F.);
#735=CARTESIAN_POINT('',(-0.000625,0.00085,0.0009));
#736=DIRECTION('',(0.0,-1.0,0.0));
#737=DIRECTION('',(0.0,0.0,-1.0));
#738=SURFACE_STYLE_FILL_AREA(#883);
#739=ORIENTED_EDGE('',*,*,#871,.T.);
#740=ORIENTED_EDGE('',*,*,#875,.T.);
#741=ORIENTED_EDGE('',*,*,#879,.T.);
#742=ORIENTED_EDGE('',*,*,#882,.T.);
#743=CARTESIAN_POINT('',(0.0,0.0,0.0009));
#744=DIRECTION('',(-0.0,0.0,1.0));
#745=DIRECTION('',(1.0,0.0,0.0));
#746=SURFACE_STYLE_FILL_AREA(#884);
#747=ORIENTED_EDGE('',*,*,#885,.T.);
#748=ORIENTED_EDGE('',*,*,#886,.T.);
#749=ORIENTED_EDGE('',*,*,#887,.T.);
#750=ORIENTED_EDGE('',*,*,#888,.T.);
#751=CARTESIAN_POINT('',(0.0,0.0,0.0));
#752=DIRECTION('',(-0.0,0.0,1.0));
#753=DIRECTION('',(1.0,0.0,0.0));
#754=SURFACE_STYLE_FILL_AREA(#889);
#755=ORIENTED_EDGE('',*,*,#890,.F.);
#756=ORIENTED_EDGE('',*,*,#888,.F.);
#757=ORIENTED_EDGE('',*,*,#891,.F.);
#758=ORIENTED_EDGE('',*,*,#881,.F.);
#759=CARTESIAN_POINT('',(-0.000625,0.00085,0.000600000000000024));
#760=DIRECTION('',(0.0,-0.996194698091746,0.0871557427476548));
#761=DIRECTION('',(-1.0,0.0,0.0));
#762=SURFACE_STYLE_FILL_AREA(#892);
#763=ORIENTED_EDGE('',*,*,#891,.T.);
#764=ORIENTED_EDGE('',*,*,#887,.F.);
#765=ORIENTED_EDGE('',*,*,#893,.F.);
#766=ORIENTED_EDGE('',*,*,#869,.F.);
#767=CARTESIAN_POINT('',(-0.000625,0.00085,0.000600000000000024));
#768=DIRECTION('',(0.996194698091746,1.27067818339954E-16,0.0871557427476548));
#769=DIRECTION('',(0.0,-1.0,1.45793971038556E-15));
#770=SURFACE_STYLE_FILL_AREA(#894);
#771=ORIENTED_EDGE('',*,*,#890,.T.);
#772=ORIENTED_EDGE('',*,*,#877,.F.);
#773=ORIENTED_EDGE('',*,*,#895,.F.);
#774=ORIENTED_EDGE('',*,*,#885,.F.);
#775=CARTESIAN_POINT('',(0.000625,0.00085,0.000600000000000024));
#776=DIRECTION('',(-0.996194698091746,-1.27067818339954E-16,0.0871557427476548));
#777=DIRECTION('',(-1.27553196763001E-16,1.0,2.09819818478774E-33));
#778=SURFACE_STYLE_FILL_AREA(#896);
#779=ORIENTED_EDGE('',*,*,#893,.T.);
#780=ORIENTED_EDGE('',*,*,#886,.F.);
#781=ORIENTED_EDGE('',*,*,#895,.T.);
#782=ORIENTED_EDGE('',*,*,#873,.F.);
#783=CARTESIAN_POINT('',(-0.000625,-0.00085,0.000600000000000024));
#784=DIRECTION('',(0.0,0.996194698091746,0.0871557427476548));
#785=DIRECTION('',(1.0,0.0,-0.0));
#786=SURFACE_STYLE_FILL_AREA(#897);
#789=FILL_AREA_STYLE('',(#898));
#790=EDGE_CURVE('0:301',#899,#900,#901,.T.);
#791=EDGE_CURVE('0:304',#902,#900,#903,.T.);
#792=EDGE_CURVE('0:307',#904,#902,#905,.T.);
#793=EDGE_CURVE('0:310',#904,#899,#906,.T.);
#794=FILL_AREA_STYLE('',(#907));
#795=EDGE_CURVE('0:313',#900,#908,#909,.T.);
#796=EDGE_CURVE('0:316',#910,#908,#911,.T.);
#797=EDGE_CURVE('0:319',#902,#910,#912,.T.);
#798=FILL_AREA_STYLE('',(#913));
#799=EDGE_CURVE('0:322',#908,#914,#915,.T.);
#800=EDGE_CURVE('0:325',#916,#914,#917,.T.);
#801=EDGE_CURVE('0:328',#910,#916,#918,.T.);
#802=FILL_AREA_STYLE('',(#919));
#803=EDGE_CURVE('0:331',#914,#920,#921,.T.);
#804=EDGE_CURVE('0:334',#922,#920,#923,.T.);
#805=EDGE_CURVE('0:337',#916,#922,#924,.T.);
#806=FILL_AREA_STYLE('',(#925));
#807=EDGE_CURVE('0:340',#920,#926,#927,.T.);
#808=EDGE_CURVE('0:343',#928,#926,#929,.T.);
#809=EDGE_CURVE('0:346',#922,#928,#930,.T.);
#810=FILL_AREA_STYLE('',(#931));
#811=EDGE_CURVE('0:349',#926,#932,#933,.T.);
#812=EDGE_CURVE('0:352',#934,#932,#935,.T.);
#813=EDGE_CURVE('0:355',#928,#934,#936,.T.);
#814=FILL_AREA_STYLE('',(#937));
#815=EDGE_CURVE('0:358',#932,#938,#939,.T.);
#816=EDGE_CURVE('0:361',#940,#938,#941,.T.);
#817=EDGE_CURVE('0:364',#934,#940,#942,.T.);
#818=FILL_AREA_STYLE('',(#943));
#819=EDGE_CURVE('0:367',#938,#944,#945,.T.);
#820=EDGE_CURVE('0:370',#946,#944,#947,.T.);
#821=EDGE_CURVE('0:373',#940,#946,#948,.T.);
#822=FILL_AREA_STYLE('',(#949));
#823=EDGE_CURVE('0:376',#944,#899,#950,.T.);
#824=EDGE_CURVE('0:379',#946,#904,#951,.T.);
#825=FILL_AREA_STYLE('',(#952));
#826=FILL_AREA_STYLE('',(#953));
#827=FILL_AREA_STYLE('',(#954));
#828=FILL_AREA_STYLE('',(#955));
#829=EDGE_CURVE('0:172',#956,#957,#958,.T.);
#830=EDGE_CURVE('0:175',#959,#956,#960,.T.);
#831=EDGE_CURVE('0:178',#959,#961,#962,.T.);
#832=EDGE_CURVE('0:181',#961,#957,#963,.T.);
#833=FILL_AREA_STYLE('',(#964));
#834=EDGE_CURVE('0:184',#957,#965,#966,.T.);
#835=EDGE_CURVE('0:187',#961,#967,#968,.T.);
#836=EDGE_CURVE('0:190',#967,#965,#969,.T.);
#837=FILL_AREA_STYLE('',(#970));
#838=EDGE_CURVE('0:193',#965,#971,#972,.T.);
#839=EDGE_CURVE('0:196',#967,#973,#974,.T.);
#840=EDGE_CURVE('0:199',#973,#971,#975,.T.);
#841=FILL_AREA_STYLE('',(#976));
#842=EDGE_CURVE('0:202',#971,#977,#978,.T.);
#843=EDGE_CURVE('0:205',#973,#979,#980,.T.);
#844=EDGE_CURVE('0:208',#979,#977,#981,.T.);
#845=FILL_AREA_STYLE('',(#982));
#846=EDGE_CURVE('0:211',#977,#983,#984,.T.);
#847=EDGE_CURVE('0:214',#979,#985,#986,.T.);
#848=EDGE_CURVE('0:217',#985,#983,#987,.T.);
#849=FILL_AREA_STYLE('',(#988));
#850=EDGE_CURVE('0:220',#983,#989,#990,.T.);
#851=EDGE_CURVE('0:223',#985,#991,#992,.T.);
#852=EDGE_CURVE('0:226',#991,#989,#993,.T.);
#853=FILL_AREA_STYLE('',(#994));
#854=EDGE_CURVE('0:229',#989,#995,#996,.T.);
#855=EDGE_CURVE('0:232',#991,#997,#998,.T.);
#856=EDGE_CURVE('0:235',#997,#995,#999,.T.);
#857=FILL_AREA_STYLE('',(#1000));
#858=EDGE_CURVE('0:238',#995,#1001,#1002,.T.);
#859=EDGE_CURVE('0:241',#997,#1003,#1004,.T.);
#860=EDGE_CURVE('0:244',#1003,#1001,#1005,.T.);
#861=FILL_AREA_STYLE('',(#1006));
#862=EDGE_CURVE('0:247',#1001,#956,#1007,.T.);
#863=EDGE_CURVE('0:250',#1003,#959,#1008,.T.);
#864=FILL_AREA_STYLE('',(#1009));
#865=FILL_AREA_STYLE('',(#1010));
#866=FILL_AREA_STYLE('',(#1011));
#867=FILL_AREA_STYLE('',(#1012));
#868=EDGE_CURVE('0:61',#1013,#1014,#1015,.T.);
#869=EDGE_CURVE('0:64',#1014,#1016,#1017,.T.);
#870=EDGE_CURVE('0:67',#1018,#1016,#1019,.T.);
#871=EDGE_CURVE('0:70',#1013,#1018,#1020,.T.);
#872=FILL_AREA_STYLE('',(#1021));
#873=EDGE_CURVE('0:73',#1016,#1022,#1023,.T.);
#874=EDGE_CURVE('0:76',#1024,#1022,#1025,.T.);
#875=EDGE_CURVE('0:79',#1018,#1024,#1026,.T.);
#876=FILL_AREA_STYLE('',(#1027));
#877=EDGE_CURVE('0:82',#1022,#1028,#1029,.T.);
#878=EDGE_CURVE('0:85',#1030,#1028,#1031,.T.);
#879=EDGE_CURVE('0:88',#1024,#1030,#1032,.T.);
#880=FILL_AREA_STYLE('',(#1033));
#881=EDGE_CURVE('0:91',#1028,#1014,#1034,.T.);
#882=EDGE_CURVE('0:94',#1030,#1013,#1035,.T.);
#883=FILL_AREA_STYLE('',(#1036));
#884=FILL_AREA_STYLE('',(#1037));
#885=EDGE_CURVE('0:97',#1038,#1039,#1040,.T.);
#886=EDGE_CURVE('0:100',#1039,#1041,#1042,.T.);
#887=EDGE_CURVE('0:103',#1041,#1043,#1044,.T.);
#888=EDGE_CURVE('0:106',#1043,#1038,#1045,.T.);
#889=FILL_AREA_STYLE('',(#1046));
#890=EDGE_CURVE('0:109',#1038,#1028,#1047,.T.);
#891=EDGE_CURVE('0:112',#1014,#1043,#1048,.T.);
#892=FILL_AREA_STYLE('',(#1049));
#893=EDGE_CURVE('0:115',#1016,#1041,#1050,.T.);
#894=FILL_AREA_STYLE('',(#1051));
#895=EDGE_CURVE('0:118',#1039,#1022,#1052,.T.);
#896=FILL_AREA_STYLE('',(#1053));
#897=FILL_AREA_STYLE('',(#1054));
#898=FILL_AREA_STYLE_COLOUR('',#1055);
#899=VERTEX_POINT('NONE',#1056);
#900=VERTEX_POINT('NONE',#1057);
#901=CIRCLE('',#1058,0.0001);
#902=VERTEX_POINT('NONE',#1059);
#903=LINE('',#1060,#1061);
#904=VERTEX_POINT('NONE',#1062);
#905=CIRCLE('',#1063,0.0001);
#906=LINE('',#1064,#1065);
#907=FILL_AREA_STYLE_COLOUR('',#1066);
#908=VERTEX_POINT('NONE',#1067);
#909=LINE('',#1068,#1069);
#910=VERTEX_POINT('NONE',#1070);
#911=LINE('',#1071,#1072);
#912=LINE('',#1073,#1074);
#913=FILL_AREA_STYLE_COLOUR('',#1075);
#914=VERTEX_POINT('NONE',#1076);
#915=CIRCLE('',#1077,0.00015);
#916=VERTEX_POINT('NONE',#1078);
#917=LINE('',#1079,#1080);
#918=CIRCLE('',#1081,0.00015);
#919=FILL_AREA_STYLE_COLOUR('',#1082);
#920=VERTEX_POINT('NONE',#1083);
#921=LINE('',#1084,#1085);
#922=VERTEX_POINT('NONE',#1086);
#923=LINE('',#1087,#1088);
#924=LINE('',#1089,#1090);
#925=FILL_AREA_STYLE_COLOUR('',#1091);
#926=VERTEX_POINT('NONE',#1092);
#927=LINE('',#1093,#1094);
#928=VERTEX_POINT('NONE',#1095);
#929=LINE('',#1096,#1097);
#930=LINE('',#1098,#1099);
#931=FILL_AREA_STYLE_COLOUR('',#1100);
#932=VERTEX_POINT('NONE',#1101);
#933=CIRCLE('',#1102,0.00025);
#934=VERTEX_POINT('NONE',#1103);
#935=LINE('',#1104,#1105);
#936=CIRCLE('',#1106,0.00025);
#937=FILL_AREA_STYLE_COLOUR('',#1107);
#938=VERTEX_POINT('NONE',#1108);
#939=LINE('',#1109,#1110);
#940=VERTEX_POINT('NONE',#1111);
#941=LINE('',#1112,#1113);
#942=LINE('',#1114,#1115);
#943=FILL_AREA_STYLE_COLOUR('',#1116);
#944=VERTEX_POINT('NONE',#1117);
#945=LINE('',#1118,#1119);
#946=VERTEX_POINT('NONE',#1120);
#947=LINE('',#1121,#1122);
#948=LINE('',#1123,#1124);
#949=FILL_AREA_STYLE_COLOUR('',#1125);
#950=LINE('',#1126,#1127);
#951=LINE('',#1128,#1129);
#952=FILL_AREA_STYLE_COLOUR('',#1130);
#953=FILL_AREA_STYLE_COLOUR('',#1131);
#954=FILL_AREA_STYLE_COLOUR('',#1132);
#955=FILL_AREA_STYLE_COLOUR('',#1133);
#956=VERTEX_POINT('NONE',#1134);
#957=VERTEX_POINT('NONE',#1135);
#958=CIRCLE('',#1136,0.0001);
#959=VERTEX_POINT('NONE',#1137);
#960=LINE('',#1138,#1139);
#961=VERTEX_POINT('NONE',#1140);
#962=CIRCLE('',#1141,0.0001);
#963=LINE('',#1142,#1143);
#964=FILL_AREA_STYLE_COLOUR('',#1144);
#965=VERTEX_POINT('NONE',#1145);
#966=LINE('',#1146,#1147);
#967=VERTEX_POINT('NONE',#1148);
#968=LINE('',#1149,#1150);
#969=LINE('',#1151,#1152);
#970=FILL_AREA_STYLE_COLOUR('',#1153);
#971=VERTEX_POINT('NONE',#1154);
#972=CIRCLE('',#1155,0.00015);
#973=VERTEX_POINT('NONE',#1156);
#974=CIRCLE('',#1157,0.00015);
#975=LINE('',#1158,#1159);
#976=FILL_AREA_STYLE_COLOUR('',#1160);
#977=VERTEX_POINT('NONE',#1161);
#978=LINE('',#1162,#1163);
#979=VERTEX_POINT('NONE',#1164);
#980=LINE('',#1165,#1166);
#981=LINE('',#1167,#1168);
#982=FILL_AREA_STYLE_COLOUR('',#1169);
#983=VERTEX_POINT('NONE',#1170);
#984=LINE('',#1171,#1172);
#985=VERTEX_POINT('NONE',#1173);
#986=LINE('',#1174,#1175);
#987=LINE('',#1176,#1177);
#988=FILL_AREA_STYLE_COLOUR('',#1178);
#989=VERTEX_POINT('NONE',#1179);
#990=CIRCLE('',#1180,0.00025);
#991=VERTEX_POINT('NONE',#1181);
#992=CIRCLE('',#1182,0.00025);
#993=LINE('',#1183,#1184);
#994=FILL_AREA_STYLE_COLOUR('',#1185);
#995=VERTEX_POINT('NONE',#1186);
#996=LINE('',#1187,#1188);
#997=VERTEX_POINT('NONE',#1189);
#998=LINE('',#1190,#1191);
#999=LINE('',#1192,#1193);
#1000=FILL_AREA_STYLE_COLOUR('',#1194);
#1001=VERTEX_POINT('NONE',#1195);
#1002=LINE('',#1196,#1197);
#1003=VERTEX_POINT('NONE',#1198);
#1004=LINE('',#1199,#1200);
#1005=LINE('',#1201,#1202);
#1006=FILL_AREA_STYLE_COLOUR('',#1203);
#1007=LINE('',#1204,#1205);
#1008=LINE('',#1206,#1207);
#1009=FILL_AREA_STYLE_COLOUR('',#1208);
#1010=FILL_AREA_STYLE_COLOUR('',#1209);
#1011=FILL_AREA_STYLE_COLOUR('',#1210);
#1012=FILL_AREA_STYLE_COLOUR('',#1211);
#1013=VERTEX_POINT('NONE',#1212);
#1014=VERTEX_POINT('NONE',#1213);
#1015=LINE('',#1214,#1215);
#1016=VERTEX_POINT('NONE',#1216);
#1017=LINE('',#1217,#1218);
#1018=VERTEX_POINT('NONE',#1219);
#1019=LINE('',#1220,#1221);
#1020=LINE('',#1222,#1223);
#1021=FILL_AREA_STYLE_COLOUR('',#1224);
#1022=VERTEX_POINT('NONE',#1225);
#1023=LINE('',#1226,#1227);
#1024=VERTEX_POINT('NONE',#1228);
#1025=LINE('',#1229,#1230);
#1026=LINE('',#1231,#1232);
#1027=FILL_AREA_STYLE_COLOUR('',#1233);
#1028=VERTEX_POINT('NONE',#1234);
#1029=LINE('',#1235,#1236);
#1030=VERTEX_POINT('NONE',#1237);
#1031=LINE('',#1238,#1239);
#1032=LINE('',#1240,#1241);
#1033=FILL_AREA_STYLE_COLOUR('',#1242);
#1034=LINE('',#1243,#1244);
#1035=LINE('',#1245,#1246);
#1036=FILL_AREA_STYLE_COLOUR('',#1247);
#1037=FILL_AREA_STYLE_COLOUR('',#1248);
#1038=VERTEX_POINT('NONE',#1249);
#1039=VERTEX_POINT('NONE',#1250);
#1040=LINE('',#1251,#1252);
#1041=VERTEX_POINT('NONE',#1253);
#1042=LINE('',#1254,#1255);
#1043=VERTEX_POINT('NONE',#1256);
#1044=LINE('',#1257,#1258);
#1045=LINE('',#1259,#1260);
#1046=FILL_AREA_STYLE_COLOUR('',#1261);
#1047=LINE('',#1262,#1263);
#1048=LINE('',#1264,#1265);
#1049=FILL_AREA_STYLE_COLOUR('',#1266);
#1050=LINE('',#1267,#1268);
#1051=FILL_AREA_STYLE_COLOUR('',#1269);
#1052=LINE('',#1270,#1271);
#1053=FILL_AREA_STYLE_COLOUR('',#1272);
#1054=FILL_AREA_STYLE_COLOUR('',#1273);
#1055=COLOUR_RGB('',0.882352948188782,0.882352948188782,0.882352948188782);
#1056=CARTESIAN_POINT('',(-0.00015,0.00113157599161991,0.00015));
#1057=CARTESIAN_POINT('',(-0.00015,0.00103195652181073,0.000241284425725234));
#1058=AXIS2_PLACEMENT_3D('',#1274,#1275,#1276);
#1059=CARTESIAN_POINT('',(0.00015,0.00103195652181073,0.000241284425725234));
#1060=CARTESIAN_POINT('',(0.00015,0.00103195652181073,0.000241284425725234));
#1061=VECTOR('',#1277,1.0);
#1062=CARTESIAN_POINT('',(0.00015,0.00113157599161991,0.00015));
#1063=AXIS2_PLACEMENT_3D('',#1278,#1279,#1280);
#1064=CARTESIAN_POINT('',(0.00015,0.00113157599161991,0.00015));
#1065=VECTOR('',#1281,1.0);
#1066=COLOUR_RGB('',0.882352948188782,0.882352948188782,0.882352948188782);
#1067=CARTESIAN_POINT('',(-0.00015,0.000999429204713761,0.000613073361412148));
#1068=CARTESIAN_POINT('',(-0.00015,0.00103195652181073,0.000241284425725234));
#1069=VECTOR('',#1282,1.0);
#1070=CARTESIAN_POINT('',(0.00015,0.000999429204713761,0.000613073361412148));
#1071=CARTESIAN_POINT('',(0.00015,0.000999429204713761,0.000613073361412148));
#1072=VECTOR('',#1283,1.0);
#1073=CARTESIAN_POINT('',(0.00015,0.00103195652181073,0.000241284425725234));
#1074=VECTOR('',#1284,1.0);
#1075=COLOUR_RGB('',0.882352948188782,0.882352948188782,0.882352948188782);
#1076=CARTESIAN_POINT('',(-0.00015,0.000849999999999999,0.00075));
#1077=AXIS2_PLACEMENT_3D('',#1285,#1286,#1287);
#1078=CARTESIAN_POINT('',(0.00015,0.000849999999999999,0.00075));
#1079=CARTESIAN_POINT('',(0.00015,0.000849999999999999,0.00075));
#1080=VECTOR('',#1288,1.0);
#1081=AXIS2_PLACEMENT_3D('',#1289,#1290,#1291);
#1082=COLOUR_RGB('',0.882352948188782,0.882352948188782,0.882352948188782);
#1083=CARTESIAN_POINT('',(-0.00015,0.000849999999999999,0.0006));
#1084=CARTESIAN_POINT('',(-0.00015,0.000849999999999999,0.00075));
#1085=VECTOR('',#1292,1.0);
#1086=CARTESIAN_POINT('',(0.00015,0.000849999999999999,0.0006));
#1087=CARTESIAN_POINT('',(0.00015,0.000849999999999999,0.0006));
#1088=VECTOR('',#1293,1.0);
#1089=CARTESIAN_POINT('',(0.00015,0.000849999999999999,0.00075));
#1090=VECTOR('',#1294,1.0);
#1091=COLOUR_RGB('',0.882352948188782,0.882352948188782,0.882352948188782);
#1092=CARTESIAN_POINT('',(-0.00015,0.000882527317096972,0.000228211064313086));
#1093=CARTESIAN_POINT('',(-0.00015,0.000849999999999999,0.0006));
#1094=VECTOR('',#1295,1.0);
#1095=CARTESIAN_POINT('',(0.00015,0.000882527317096972,0.000228211064313086));
#1096=CARTESIAN_POINT('',(0.00015,0.000882527317096972,0.000228211064313086));
#1097=VECTOR('',#1296,1.0);
#1098=CARTESIAN_POINT('',(0.00015,0.000849999999999999,0.0006));
#1099=VECTOR('',#1297,1.0);
#1100=COLOUR_RGB('',0.882352948188782,0.882352948188782,0.882352948188782);
#1101=CARTESIAN_POINT('',(-0.00015,0.00113157599161991,0.0));
#1102=AXIS2_PLACEMENT_3D('',#1298,#1299,#1300);
#1103=CARTESIAN_POINT('',(0.00015,0.00113157599161991,0.0));
#1104=CARTESIAN_POINT('',(0.00015,0.00113157599161991,0.0));
#1105=VECTOR('',#1301,1.0);
#1106=AXIS2_PLACEMENT_3D('',#1302,#1303,#1304);
#1107=COLOUR_RGB('',0.882352948188782,0.882352948188782,0.882352948188782);
#1108=CARTESIAN_POINT('',(-0.00015,0.00125,0.0));
#1109=CARTESIAN_POINT('',(-0.00015,0.00113157599161991,0.0));
#1110=VECTOR('',#1305,1.0);
#1111=CARTESIAN_POINT('',(0.00015,0.00125,0.0));
#1112=CARTESIAN_POINT('',(0.00015,0.00125,0.0));
#1113=VECTOR('',#1306,1.0);
#1114=CARTESIAN_POINT('',(0.00015,0.00113157599161991,0.0));
#1115=VECTOR('',#1307,1.0);
#1116=COLOUR_RGB('',0.882352948188782,0.882352948188782,0.882352948188782);
#1117=CARTESIAN_POINT('',(-0.00015,0.00125,0.00015));
#1118=CARTESIAN_POINT('',(-0.00015,0.00125,0.0));
#1119=VECTOR('',#1308,1.0);
#1120=CARTESIAN_POINT('',(0.00015,0.00125,0.00015));
#1121=CARTESIAN_POINT('',(0.00015,0.00125,0.00015));
#1122=VECTOR('',#1309,1.0);
#1123=CARTESIAN_POINT('',(0.00015,0.00125,0.0));
#1124=VECTOR('',#1310,1.0);
#1125=COLOUR_RGB('',0.882352948188782,0.882352948188782,0.882352948188782);
#1126=CARTESIAN_POINT('',(-0.00015,0.00125,0.00015));
#1127=VECTOR('',#1311,1.0);
#1128=CARTESIAN_POINT('',(0.00015,0.00125,0.00015));
#1129=VECTOR('',#1312,1.0);
#1130=COLOUR_RGB('',0.882352948188782,0.882352948188782,0.882352948188782);
#1131=COLOUR_RGB('',0.882352948188782,0.882352948188782,0.882352948188782);
#1132=COLOUR_RGB('',0.882352948188782,0.882352948188782,0.882352948188782);
#1133=COLOUR_RGB('',0.882352948188782,0.882352948188782,0.882352948188782);
#1134=CARTESIAN_POINT('',(-0.00015,-0.00113157599161991,0.00015));
#1135=CARTESIAN_POINT('',(-0.00015,-0.00103195652181073,0.000241284425725234));
#1136=AXIS2_PLACEMENT_3D('',#1313,#1314,#1315);
#1137=CARTESIAN_POINT('',(0.00015,-0.00113157599161991,0.00015));
#1138=CARTESIAN_POINT('',(0.00015,-0.00113157599161991,0.00015));
#1139=VECTOR('',#1316,1.0);
#1140=CARTESIAN_POINT('',(0.00015,-0.00103195652181073,0.000241284425725234));
#1141=AXIS2_PLACEMENT_3D('',#1317,#1318,#1319);
#1142=CARTESIAN_POINT('',(0.00015,-0.00103195652181073,0.000241284425725234));
#1143=VECTOR('',#1320,1.0);
#1144=COLOUR_RGB('',0.882352948188782,0.882352948188782,0.882352948188782);
#1145=CARTESIAN_POINT('',(-0.00015,-0.000999429204713761,0.000613073361412148));
#1146=CARTESIAN_POINT('',(-0.00015,-0.00103195652181073,0.000241284425725234));
#1147=VECTOR('',#1321,1.0);
#1148=CARTESIAN_POINT('',(0.00015,-0.000999429204713761,0.000613073361412148));
#1149=CARTESIAN_POINT('',(0.00015,-0.00103195652181073,0.000241284425725234));
#1150=VECTOR('',#1322,1.0);
#1151=CARTESIAN_POINT('',(0.00015,-0.000999429204713761,0.000613073361412148));
#1152=VECTOR('',#1323,1.0);
#1153=COLOUR_RGB('',0.882352948188782,0.882352948188782,0.882352948188782);
#1154=CARTESIAN_POINT('',(-0.00015,-0.000849999999999999,0.00075));
#1155=AXIS2_PLACEMENT_3D('',#1324,#1325,#1326);
#1156=CARTESIAN_POINT('',(0.00015,-0.000849999999999999,0.00075));
#1157=AXIS2_PLACEMENT_3D('',#1327,#1328,#1329);
#1158=CARTESIAN_POINT('',(0.00015,-0.000849999999999999,0.00075));
#1159=VECTOR('',#1330,1.0);
#1160=COLOUR_RGB('',0.882352948188782,0.882352948188782,0.882352948188782);
#1161=CARTESIAN_POINT('',(-0.00015,-0.000849999999999999,0.0006));
#1162=CARTESIAN_POINT('',(-0.00015,-0.000849999999999999,0.00075));
#1163=VECTOR('',#1331,1.0);
#1164=CARTESIAN_POINT('',(0.00015,-0.000849999999999999,0.0006));
#1165=CARTESIAN_POINT('',(0.00015,-0.000849999999999999,0.00075));
#1166=VECTOR('',#1332,1.0);
#1167=CARTESIAN_POINT('',(0.00015,-0.000849999999999999,0.0006));
#1168=VECTOR('',#1333,1.0);
#1169=COLOUR_RGB('',0.882352948188782,0.882352948188782,0.882352948188782);
#1170=CARTESIAN_POINT('',(-0.00015,-0.000882527317096972,0.000228211064313086));
#1171=CARTESIAN_POINT('',(-0.00015,-0.000849999999999999,0.0006));
#1172=VECTOR('',#1334,1.0);
#1173=CARTESIAN_POINT('',(0.00015,-0.000882527317096972,0.000228211064313086));
#1174=CARTESIAN_POINT('',(0.00015,-0.000849999999999999,0.0006));
#1175=VECTOR('',#1335,1.0);
#1176=CARTESIAN_POINT('',(0.00015,-0.000882527317096972,0.000228211064313086));
#1177=VECTOR('',#1336,1.0);
#1178=COLOUR_RGB('',0.882352948188782,0.882352948188782,0.882352948188782);
#1179=CARTESIAN_POINT('',(-0.00015,-0.00113157599161991,0.0));
#1180=AXIS2_PLACEMENT_3D('',#1337,#1338,#1339);
#1181=CARTESIAN_POINT('',(0.00015,-0.00113157599161991,0.0));
#1182=AXIS2_PLACEMENT_3D('',#1340,#1341,#1342);
#1183=CARTESIAN_POINT('',(0.00015,-0.00113157599161991,0.0));
#1184=VECTOR('',#1343,1.0);
#1185=COLOUR_RGB('',0.882352948188782,0.882352948188782,0.882352948188782);
#1186=CARTESIAN_POINT('',(-0.00015,-0.00125,0.0));
#1187=CARTESIAN_POINT('',(-0.00015,-0.00113157599161991,0.0));
#1188=VECTOR('',#1344,1.0);
#1189=CARTESIAN_POINT('',(0.00015,-0.00125,0.0));
#1190=CARTESIAN_POINT('',(0.00015,-0.00113157599161991,0.0));
#1191=VECTOR('',#1345,1.0);
#1192=CARTESIAN_POINT('',(0.00015,-0.00125,0.0));
#1193=VECTOR('',#1346,1.0);
#1194=COLOUR_RGB('',0.882352948188782,0.882352948188782,0.882352948188782);
#1195=CARTESIAN_POINT('',(-0.00015,-0.00125,0.00015));
#1196=CARTESIAN_POINT('',(-0.00015,-0.00125,0.0));
#1197=VECTOR('',#1347,1.0);
#1198=CARTESIAN_POINT('',(0.00015,-0.00125,0.00015));
#1199=CARTESIAN_POINT('',(0.00015,-0.00125,0.0));
#1200=VECTOR('',#1348,1.0);
#1201=CARTESIAN_POINT('',(0.00015,-0.00125,0.00015));
#1202=VECTOR('',#1349,1.0);
#1203=COLOUR_RGB('',0.882352948188782,0.882352948188782,0.882352948188782);
#1204=CARTESIAN_POINT('',(-0.00015,-0.00125,0.00015));
#1205=VECTOR('',#1350,1.0);
#1206=CARTESIAN_POINT('',(0.00015,-0.00125,0.00015));
#1207=VECTOR('',#1351,1.0);
#1208=COLOUR_RGB('',0.882352948188782,0.882352948188782,0.882352948188782);
#1209=COLOUR_RGB('',0.882352948188782,0.882352948188782,0.882352948188782);
#1210=COLOUR_RGB('',0.882352948188782,0.882352948188782,0.882352948188782);
#1211=COLOUR_RGB('',0.882352948188782,0.882352948188782,0.882352948188782);
#1212=CARTESIAN_POINT('',(-0.000625,0.00085,0.0009));
#1213=CARTESIAN_POINT('',(-0.000625,0.00085,0.000600000000000024));
#1214=CARTESIAN_POINT('',(-0.000625,0.00085,0.0009));
#1215=VECTOR('',#1352,1.0);
#1216=CARTESIAN_POINT('',(-0.000625,-0.00085,0.000600000000000024));
#1217=CARTESIAN_POINT('',(-0.000625,0.00085,0.000600000000000024));
#1218=VECTOR('',#1353,1.0);
#1219=CARTESIAN_POINT('',(-0.000625,-0.00085,0.0009));
#1220=CARTESIAN_POINT('',(-0.000625,-0.00085,0.0009));
#1221=VECTOR('',#1354,1.0);
#1222=CARTESIAN_POINT('',(-0.000625,0.00085,0.0009));
#1223=VECTOR('',#1355,1.0);
#1224=COLOUR_RGB('',0.882352948188782,0.882352948188782,0.882352948188782);
#1225=CARTESIAN_POINT('',(0.000625,-0.00085,0.000600000000000024));
#1226=CARTESIAN_POINT('',(-0.000625,-0.00085,0.000600000000000024));
#1227=VECTOR('',#1356,1.0);
#1228=CARTESIAN_POINT('',(0.000625,-0.00085,0.0009));
#1229=CARTESIAN_POINT('',(0.000625,-0.00085,0.0009));
#1230=VECTOR('',#1357,1.0);
#1231=CARTESIAN_POINT('',(-0.000625,-0.00085,0.0009));
#1232=VECTOR('',#1358,1.0);
#1233=COLOUR_RGB('',0.882352948188782,0.882352948188782,0.882352948188782);
#1234=CARTESIAN_POINT('',(0.000625,0.00085,0.000600000000000024));
#1235=CARTESIAN_POINT('',(0.000625,0.00085,0.000600000000000024));
#1236=VECTOR('',#1359,1.0);
#1237=CARTESIAN_POINT('',(0.000625,0.00085,0.0009));
#1238=CARTESIAN_POINT('',(0.000625,0.00085,0.0009));
#1239=VECTOR('',#1360,1.0);
#1240=CARTESIAN_POINT('',(0.000625,0.00085,0.0009));
#1241=VECTOR('',#1361,1.0);
#1242=COLOUR_RGB('',0.882352948188782,0.882352948188782,0.882352948188782);
#1243=CARTESIAN_POINT('',(-0.000625,0.00085,0.000600000000000024));
#1244=VECTOR('',#1362,1.0);
#1245=CARTESIAN_POINT('',(-0.000625,0.00085,0.0009));
#1246=VECTOR('',#1363,1.0);
#1247=COLOUR_RGB('',0.882352948188782,0.882352948188782,0.882352948188782);
#1248=COLOUR_RGB('',0.882352948188782,0.882352948188782,0.882352948188782);
#1249=CARTESIAN_POINT('',(0.000572506801884446,0.000797506801884445,0.0));
#1250=CARTESIAN_POINT('',(0.000572506801884446,-0.000797506801884445,0.0));
#1251=CARTESIAN_POINT('',(0.000572506801884446,7.30250727489228E-20,0.0));
#1252=VECTOR('',#1364,1.0);
#1253=CARTESIAN_POINT('',(-0.000572506801884446,-0.000797506801884445,0.0));
#1254=CARTESIAN_POINT('',(-0.0,-0.000797506801884445,0.0));
#1255=VECTOR('',#1365,1.0);
#1256=CARTESIAN_POINT('',(-0.000572506801884446,0.000797506801884445,0.0));
#1257=CARTESIAN_POINT('',(-0.000572506801884446,-7.30250727489228E-20,0.0));
#1258=VECTOR('',#1366,1.0);
#1259=CARTESIAN_POINT('',(0.0,0.000797506801884445,0.0));
#1260=VECTOR('',#1367,1.0);
#1261=COLOUR_RGB('',0.882352948188782,0.882352948188782,0.882352948188782);
#1262=CARTESIAN_POINT('',(0.000625,0.00085,0.000600000000000024));
#1263=VECTOR('',#1368,1.0);
#1264=CARTESIAN_POINT('',(-0.000625,0.00085,0.000600000000000024));
#1265=VECTOR('',#1369,1.0);
#1266=COLOUR_RGB('',0.882352948188782,0.882352948188782,0.882352948188782);
#1267=CARTESIAN_POINT('',(-0.000612183942416487,-0.000837183942416487,0.000453511791505265));
#1268=VECTOR('',#1370,1.0);
#1269=COLOUR_RGB('',0.882352948188782,0.882352948188782,0.882352948188782);
#1270=CARTESIAN_POINT('',(0.000612183942416487,-0.000837183942416487,0.000453511791505265));
#1271=VECTOR('',#1371,1.0);
#1272=COLOUR_RGB('',0.882352948188782,0.882352948188782,0.882352948188782);
#1273=COLOUR_RGB('',0.882352948188782,0.882352948188782,0.882352948188782);
#1274=CARTESIAN_POINT('',(-0.00015,0.00113157599161991,0.00025));
#1275=DIRECTION('',(-1.0,-0.0,-0.0));
#1276=DIRECTION('',(0.0,0.0,-1.0));
#1277=DIRECTION('',(-1.0,-0.0,-0.0));
#1278=CARTESIAN_POINT('',(0.00015,0.00113157599161991,0.00025));
#1279=DIRECTION('',(-1.0,-0.0,-0.0));
#1280=DIRECTION('',(0.0,0.0,-1.0));
#1281=DIRECTION('',(-1.0,-0.0,-0.0));
#1282=DIRECTION('',(0.0,-0.0871557427476552,0.996194698091746));
#1283=DIRECTION('',(-1.0,-0.0,-0.0));
#1284=DIRECTION('',(0.0,-0.0871557427476552,0.996194698091746));
#1285=CARTESIAN_POINT('',(-0.00015,0.000849999999999999,0.0006));
#1286=DIRECTION('',(1.0,0.0,0.0));
#1287=DIRECTION('',(0.0,0.0,-1.0));
#1288=DIRECTION('',(-1.0,-0.0,-0.0));
#1289=CARTESIAN_POINT('',(0.00015,0.000849999999999999,0.0006));
#1290=DIRECTION('',(1.0,0.0,0.0));
#1291=DIRECTION('',(0.0,0.0,-1.0));
#1292=DIRECTION('',(0.0,-7.2280144832367E-16,-1.0));
#1293=DIRECTION('',(-1.0,-0.0,-0.0));
#1294=DIRECTION('',(0.0,-7.2280144832367E-16,-1.0));
#1295=DIRECTION('',(0.0,0.0871557427476552,-0.996194698091746));
#1296=DIRECTION('',(-1.0,-0.0,-0.0));
#1297=DIRECTION('',(0.0,0.0871557427476552,-0.996194698091746));
#1298=CARTESIAN_POINT('',(-0.00015,0.00113157599161991,0.00025));
#1299=DIRECTION('',(1.0,0.0,0.0));
#1300=DIRECTION('',(0.0,0.0,-1.0));
#1301=DIRECTION('',(-1.0,-0.0,-0.0));
#1302=CARTESIAN_POINT('',(0.00015,0.00113157599161991,0.00025));
#1303=DIRECTION('',(1.0,0.0,0.0));
#1304=DIRECTION('',(0.0,0.0,-1.0));
#1305=DIRECTION('',(0.0,1.0,0.0));
#1306=DIRECTION('',(-1.0,-0.0,-0.0));
#1307=DIRECTION('',(0.0,1.0,0.0));
#1308=DIRECTION('',(0.0,0.0,1.0));
#1309=DIRECTION('',(-1.0,-0.0,-0.0));
#1310=DIRECTION('',(0.0,0.0,1.0));
#1311=DIRECTION('',(0.0,-1.0,-2.28881412501608E-16));
#1312=DIRECTION('',(0.0,-1.0,-2.28881412501608E-16));
#1313=CARTESIAN_POINT('',(-0.00015,-0.00113157599161991,0.00025));
#1314=DIRECTION('',(1.0,-0.0,0.0));
#1315=DIRECTION('',(0.0,0.0,-1.0));
#1316=DIRECTION('',(-1.0,0.0,-0.0));
#1317=CARTESIAN_POINT('',(0.00015,-0.00113157599161991,0.00025));
#1318=DIRECTION('',(1.0,-0.0,0.0));
#1319=DIRECTION('',(0.0,0.0,-1.0));
#1320=DIRECTION('',(-1.0,0.0,-0.0));
#1321=DIRECTION('',(0.0,0.0871557427476552,0.996194698091746));
#1322=DIRECTION('',(0.0,0.0871557427476552,0.996194698091746));
#1323=DIRECTION('',(-1.0,0.0,-0.0));
#1324=CARTESIAN_POINT('',(-0.00015,-0.000849999999999999,0.0006));
#1325=DIRECTION('',(-1.0,-0.0,-0.0));
#1326=DIRECTION('',(0.0,0.0,-1.0));
#1327=CARTESIAN_POINT('',(0.00015,-0.000849999999999999,0.0006));
#1328=DIRECTION('',(-1.0,-0.0,-0.0));
#1329=DIRECTION('',(0.0,0.0,-1.0));
#1330=DIRECTION('',(-1.0,0.0,-0.0));
#1331=DIRECTION('',(0.0,7.2280144832367E-16,-1.0));
#1332=DIRECTION('',(0.0,7.2280144832367E-16,-1.0));
#1333=DIRECTION('',(-1.0,0.0,-0.0));
#1334=DIRECTION('',(0.0,-0.0871557427476552,-0.996194698091746));
#1335=DIRECTION('',(0.0,-0.0871557427476552,-0.996194698091746));
#1336=DIRECTION('',(-1.0,0.0,-0.0));
#1337=CARTESIAN_POINT('',(-0.00015,-0.00113157599161991,0.00025));
#1338=DIRECTION('',(-1.0,-0.0,-0.0));
#1339=DIRECTION('',(0.0,0.0,-1.0));
#1340=CARTESIAN_POINT('',(0.00015,-0.00113157599161991,0.00025));
#1341=DIRECTION('',(-1.0,-0.0,-0.0));
#1342=DIRECTION('',(0.0,0.0,-1.0));
#1343=DIRECTION('',(-1.0,0.0,-0.0));
#1344=DIRECTION('',(0.0,-1.0,0.0));
#1345=DIRECTION('',(0.0,-1.0,0.0));
#1346=DIRECTION('',(-1.0,0.0,-0.0));
#1347=DIRECTION('',(0.0,0.0,1.0));
#1348=DIRECTION('',(0.0,0.0,1.0));
#1349=DIRECTION('',(-1.0,0.0,-0.0));
#1350=DIRECTION('',(0.0,1.0,-2.28881412501608E-16));
#1351=DIRECTION('',(0.0,1.0,-2.28881412501608E-16));
#1352=DIRECTION('',(-0.0,-0.0,-1.0));
#1353=DIRECTION('',(1.27553196763001E-16,-1.0,0.0));
#1354=DIRECTION('',(-0.0,-0.0,-1.0));
#1355=DIRECTION('',(1.27553196763001E-16,-1.0,0.0));
#1356=DIRECTION('',(1.0,0.0,0.0));
#1357=DIRECTION('',(-0.0,-0.0,-1.0));
#1358=DIRECTION('',(1.0,0.0,0.0));
#1359=DIRECTION('',(-1.27553196763001E-16,1.0,-0.0));
#1360=DIRECTION('',(-0.0,-0.0,-1.0));
#1361=DIRECTION('',(-1.27553196763001E-16,1.0,-0.0));
#1362=DIRECTION('',(-1.0,0.0,0.0));
#1363=DIRECTION('',(-1.0,-0.0,-0.0));
#1364=DIRECTION('',(1.27553196763001E-16,-1.0,0.0));
#1365=DIRECTION('',(-1.0,0.0,0.0));
#1366=DIRECTION('',(-1.27553196763001E-16,1.0,0.0));
#1367=DIRECTION('',(1.0,0.0,0.0));
#1368=DIRECTION('',(0.0868265938642443,0.0868265938642443,0.992432509138968));
#1369=DIRECTION('',(0.0868265938642443,-0.0868265938642443,-0.992432509138968));
#1370=DIRECTION('',(0.0868265938642443,0.0868265938642443,-0.992432509138968));
#1371=DIRECTION('',(0.0868265938642443,-0.0868265938642443,0.992432509138968));
#1372=PRESENTATION_LAYER_ASSIGNMENT('-1','NONE',(#177,#179,#181,#183,#185,#187,#189,#191,#193,#195,#197));
#1373=PRESENTATION_LAYER_ASSIGNMENT('123','NONE',(#126,#134,#142));
ENDSEC;
END-ISO-10303-21;
